<svg xmlns="http://www.w3.org/2000/svg" version="1.1" xmlns:xlink="http://www.w3.org/1999/xlink" xmlns:svgjs="http://svgjs.com/svgjs" width="500" height="500"><svg fill="none" xmlns="http://www.w3.org/2000/svg" viewBox="0 0 500 500">
  <path d="M460.45 140.94c37.808 86.691-3.174 218.952-128.827 273.752-125.653 54.799-258.163 28.946-295.97-57.745-37.808-86.691 34.57-194.186 160.223-248.985 125.653-54.8 226.767-53.713 264.574 32.978Z" fill="#F5FFBB"></path>
  <path d="M466.735 221.614c0 37.476-19.528 102.785-62.209 143.155-42.616 40.31-98.199 61.32-160.393 65.207-65.046 4.065-116.173-3.748-140.906-18.738-18.2-11.031-36.632-25.985-46.515-42.262-9.888-16.286-15.694-37.005-15.694-63.418 0-50.724 33.013-96.254 88.441-141.655 55.071-45.108 111.676-63.348 173.135-72.702 31.694-4.823 46.469 1.11 65.207 16.849 8.244 6.925 18.937-2.249 16.489-7.495-10.493-22.485-43.064-34.055-81.696-29.59C153.443 88.203-4.319 200.925 11.038 314.553c11.865 87.786 75.278 137.103 197.119 134.16 74.132-1.79 159.513-26.28 215.107-74.95 44.426-38.893 67.697-95.394 66.706-152.149-1.755-100.417-59.801-149.803-105.68-164.14-6.177-1.93-29.231-8.245-47.219-5.996-17.342 2.167-40.793 13.021-44.97 20.856 3.748-.75 27.732-3.618 41.902-1.37 16.49-2.248 32.251 2.094 33.798 2.25 52.465 5.246 98.934 76.448 98.934 148.4Z" fill="#1F5226"></path>
  <path d="M255.705 244.895c1.541-.697 3.565.226 4.003 1.579l4.325 11.857c.039.108.07.219.087.333.338 2.265-.846 3.633-3.083 3.966-8.939 1.331-13.759.479-22.794-2.191-2.945-.871-3.747-4.45-.948-5.716l18.41-9.828ZM364.852 174.247c2.134-.962 4.938.312 5.546 2.18l8.088 18.186c1.039 3.104-1.055 5.24-4.232 5.711-12.386 1.837-21.675-.99-34.192-4.677-4.082-1.202-7.27-6.208-2.077-9.312l26.867-12.088ZM222.446 159.257c2.135-.962 4.939.312 5.547 2.18l8.088 18.186c1.039 3.104-1.056 5.24-4.232 5.711-12.386 1.837-21.675-.99-34.192-4.677-4.082-1.202-7.27-6.208-2.077-9.312l26.866-12.088ZM338.594 282.853a4.416 4.416 0 0 1 3.202-3.33l17.048-4.525c2.239-.594 4.59.613 5.008 2.891 1.262 6.879.169 15.109-.685 21.532-.091.683-.179 1.346-.261 1.985-.745 5.789-.663 10.094-.551 15.909.031 1.651.065 3.424.083 5.388.028 2.951-2.791 5.076-5.636 4.289l-16.808-4.651a4.503 4.503 0 0 1-1.522-.754C302.953 343.3 277.258 354.5 233.125 352.71c-40.742-1.652-60.199-4.208-90.647-24.163l-6.875 24.456c-3.146 7.777-6.484 9.064-13.329 9.619-4.206.033-7.284-.338-11.015-2.488-1.434-.827-2.361-2.144-2.535-3.79-.727-6.883 1.886-15.125 4.607-23.707 1.514-4.776 3.062-9.658 4.086-14.47 2.248-10.56 1.458-20.831.931-27.695-.241-3.136-.428-5.56-.245-6.978.478-3.717 4.923-5.919 7.743-7.316 2.167-1.074 4.096-1.678 9.164-3.264l.003-.001 1.91-.599c3.778-1.186 5.51-1.218 8.09 1.797 3.221 3.764 6.609 9.066 7.189 14.528.365 3.443-.887 9.301-2.612 15.578 13.022 14.849 48.552 33.305 87.774 33.17 43.037-.149 64.644-10.921 98.923-35.608.159-6.137.815-11.949 2.307-18.926Z" fill="#1F5226"></path>
</svg><style>@media (prefers-color-scheme: light) { :root { filter: none; } }
</style></svg>